<?xml version="1.0" standalone="yes"?>
<svg xmlns="http://www.w3.org/2000/svg" width="1069" height="273">
<path style="fill:#ffffff; stroke:none;" d="M0 0L0 273L1069 273L1069 0L0 0z"/>
<path style="fill:#d8c648; stroke:none;" d="M69 172L98 172L110 101L175 101C174.615 95.8848 171.96 92.8597 168.753 89C165.859 85.5166 162.858 80.266 158.829 78.0278C148.36 72.2113 127.672 78.2194 116 77.4861C109.544 77.0805 91.9913 73.8132 86.7415 78.0278C82.1856 81.6853 82.3078 97.4138 81.4105 103C77.7434 125.83 74.7909 149.617 69 172z"/>
<path style="fill:#3ab8ce; stroke:none;" d="M191 77L187 101L280 101C280.223 94.0262 269.55 80.1443 262.961 77.6034C256.894 75.2639 247.45 77 241 77L191 77z"/>
<path style="fill:#d8c648; stroke:none;" d="M264 77L265 78L264 77M313 77L312 79L313 77z"/>
<path style="fill:#a48ac8; stroke:none;" d="M283 136L352 78C347.031 75.9149 340.35 77 335 77C318.278 77 298.931 80.7714 290.514 98.1698C285.385 108.771 285.244 124.429 283 136z"/>
<path style="fill:#d8c648; stroke:none;" d="M341 86L372 124L387 114C386.67 108.591 389.776 102.153 388.052 97C386.906 93.5698 383.843 90.7478 381.611 88C369.121 72.621 355.954 74.6473 341 86z"/>
<path style="fill:#3ab8ce; stroke:none;" d="M392 135L433 101.08L460 77C448.844 77 433.691 74.3049 423 77.5139C397.673 85.116 394.769 113.202 392 135z"/>
<path style="fill:#a48ac8; stroke:none;" d="M433 100L433 101L487 101L491 78L460 78.2986L433 100z"/>
<path style="fill:#d8c648; stroke:none;" d="M461 77L461 78L491 78L461 77z"/>
<path style="fill:#3ab8ce; stroke:none;" d="M510 77L506 101L599 101C598.214 93.947 588.574 80.3664 581.829 77.6034C575.944 75.1922 566.307 77 560 77L510 77z"/>
<path style="fill:#d8c648; stroke:none;" d="M599 172L685 172L685 171L627 171L634 134L677 134L680 113L638 113L644 77C637.609 77 621.745 74.0964 616.589 78.0278C611.843 81.6457 611.829 97.6101 611.116 103.285C608.229 126.256 600.836 148.928 599 172z"/>
<path style="fill:#fd7269; stroke:none;" d="M644 77L640 101L697 101L701 77L644 77z"/>
<path style="fill:#d8c648; stroke:none;" d="M758 134L732 101L797 101L801 77L753 77C746.836 77 737.668 75.3178 732 78.0131C714.014 86.5653 695.327 120.049 720.039 132.972C729.008 137.662 747.926 134 758 134M813 101L830 101L822 148L849.262 146.972L852.586 135L858 101L874 101L878 77L835 77L818.589 78.0278L813 101M879 172C886.624 172 901.117 174.798 907.815 170.972C915.376 166.653 921.181 151.366 925.6 144C939.018 121.637 952.515 99.3194 966 77C958.15 77 942.11 73.9226 935.329 78.0278C928.392 82.2269 923.32 96.1335 919.2 103C906.454 124.244 885.997 148.213 879 172z"/>
<path style="fill:#a48ac8; stroke:none;" d="M995 171L972 77C963.698 77.2696 961.276 83.5386 957.4 90C954.675 94.5412 950.383 99.695 949.433 105C947.262 117.119 956.16 136.12 959.127 148C960.574 153.796 960.843 164.888 964.938 169.397C969.301 174.201 988.723 171 995 171z"/>
<path style="fill:#d8c648; stroke:none;" d="M420 78L421 79L420 78M584 79L585 80L584 79M700.333 79.6667L700.667 80.3333L700.333 79.6667M972 79L973 80L972 79M509 80L510 81L509 80M585 80L586 81L585 80M267 81L268 82L267 81M490 81L491 82L490 81M190 82L191 83L190 82M268 82L269 83L268 82M306 83L307 84L306 83M305 84L306 85L305 84M413 84L414 85L413 84M588 84L589 85L588 84M589 85L590 86L589 85M699 85L700 86L699 85M489.333 86.6667L489.667 87.3333L489.333 86.6667M508 86L509 87L508 86M272 87L273 88L272 87z"/>
<path style="fill:#ffffff; stroke:none;" d="M373 125L350.919 97L341.829 87.9174L331 94.8696L306 116.13L298.192 125.015L303.803 134L320.414 154L329.039 160.94L342 151.246L373 125z"/>
<path style="fill:#d8c648; stroke:none;" d="M189 88L190 89L189 88M299 89L300 90L299 89M407 89L408 90L407 89M336 90L337 91L336 90M593 90L594 91L593 90M698.333 90.6667L698.667 91.3333L698.333 90.6667M594 91L595 92L594 91M276 92L277 93L276 92M488 92L489 93L488 92M277 93L278 94L277 93z"/>
<path style="fill:#a48ac8; stroke:none;" d="M188 94L189 95L188 94z"/>
<path style="fill:#d8c648; stroke:none;" d="M278 94L279 95L278 94M401 94L402 95L401 94M292 95L293 96L292 95M400 95L401 96L400 95M329 96L330 97L329 96M598 96L599 97L598 96M697.333 96.6667L697.667 97.3333L697.333 96.6667M506 97L507 98L506 97M280 98L281 99L280 98M487 98L488 99L487 98M187 99L188 100L187 99M977 99L978 100L977 99z"/>
<path style="fill:#a48ac8; stroke:none;" d="M140 101L165 132L166 132C173.104 123.681 172.351 111.24 175 101L140 101M187 101L175 172L202.258 170.972L206.753 152L216 101L187 101z"/>
<path style="fill:#d8c648; stroke:none;" d="M246 101L255 112L255 113L225 137.271L216.192 147.015L230 166L252 147L253 147L255 149L253 147L253 146L274.825 127.826L280 101L246 101M289 101L290 102L289 101M323 101L324 102L323 101z"/>
<path style="fill:#a48ac8; stroke:none;" d="M506 101L494 172L522 172L534 101L506 101z"/>
<path style="fill:#d8c648; stroke:none;" d="M564 101L571.373 112.83L562 122.079L533 146L549 166L550 166C562.622 153.639 583.794 142.859 593.143 127.961C597.702 120.695 596.972 109.232 599 101L564 101M215 102L216 103L215 102M322 102L323 103L322 102M505 104L506 105L505 104M143 105L144 106L143 105M186 106L187 107L186 106M288.333 106.667L288.667 107.333L288.333 106.667M533 106L534 107L533 106z"/>
<path style="fill:#ffffff; stroke:none;" d="M948 106L934 131L955 131L948 106z"/>
<path style="fill:#d8c648; stroke:none;" d="M316 107L317 108L316 107M214 108L215 109L214 108M315 108L316 109L315 108M504.333 109.667L504.667 110.333L504.333 109.667M949 109L950 110L949 109M147 110L148 111L147 110M148 111L149 112L148 111M532 111L533 112L532 111M185 112L186 113L185 112M287 112L288 113L287 112z"/>
<path style="fill:#3ab8ce; stroke:none;" d="M108 147L108 148L146 147.258L165 132C162.472 127.622 154.588 114.234 148.985 114.206C144.928 114.186 139.913 120.317 137 122.754C127.414 130.773 118.249 139.865 108 147z"/>
<path style="fill:#d8c648; stroke:none;" d="M213.333 113.667L213.667 114.333L213.333 113.667M309 113L310 114L309 113M395.333 113.667L395.667 114.333L395.333 113.667z"/>
<path style="fill:#fd7269; stroke:none;" d="M746 113L784 160C790.024 157.028 790.476 151.096 791.576 145C793.654 133.48 796.807 120.962 783.911 114.028C775.109 109.296 755.948 113 746 113z"/>
<path style="fill:#d8c648; stroke:none;" d="M950 113L951 114L950 113z"/>
<path style="fill:#fd7269; stroke:none;" d="M385 114L346 147.41L320 171C330.555 171 344.899 174.888 355 171.411C373.712 164.971 380.514 147.282 383.414 130C384.23 125.132 386.686 118.704 385 114z"/>
<path style="fill:#d8c648; stroke:none;" d="M503 115L504 116L503 115M748 116L749 117L748 116M184 117L185 118L184 117M489 117L489 118L494 119L489 117M531 117L532 118L531 117M749 117L750 118L749 117M787 117L788 118L787 117M951 117L952 118L951 117M385 118L386 119L385 118z"/>
<path style="fill:#a48ac8; stroke:none;" d="M442 118L438 141C445.134 141 455.262 142.849 462 140.397C470.504 137.303 482.696 125.206 488 118L442 118z"/>
<path style="fill:#fd7269; stroke:none;" d="M427 172C438.087 172 453.411 173.664 464 170.486C485.943 163.9 492.588 137.939 493 118C485.584 118.558 480.403 124.818 475 129.421C464.322 138.518 453.776 147.772 443 156.753C437.602 161.252 430.213 165.655 427 172z"/>
<path style="fill:#d8c648; stroke:none;" d="M788 118L789 119L788 118M212 119L213 120L212 119M302 119L303 120L302 119M394 119L395 120L394 119M441.333 121.667L441.667 122.333L441.333 121.667M502 121L503 122L502 121M952 121L953 122L952 121M285 122L286 123L285 122M753 122L754 123L753 122M791 122L792 123L791 122M183 123L184 124L183 123M384.333 123.667L384.667 124.333L384.333 123.667M530 123L531 124L530 123M754 123L755 124L754 123M792 123L793 124L792 123z"/>
<path style="fill:#a48ac8; stroke:none;" d="M492 124L493 125L492 124z"/>
<path style="fill:#d8c648; stroke:none;" d="M211 125L212 126L211 125z"/>
<path style="fill:#3ab8ce; stroke:none;" d="M328 163C324.178 156.889 319.191 151.533 314.586 146C310.484 141.071 303.279 128.068 296.961 126.342C287.124 123.654 281.042 142.106 281.148 149C281.223 153.873 284.988 157.479 287.92 161C299.752 175.21 314.172 175.728 328 163z"/>
<path style="fill:#d8c648; stroke:none;" d="M393 125L394 126L393 125z"/>
<path style="fill:#a48ac8; stroke:none;" d="M403 125L404 126L403 125z"/>
<path style="fill:#d8c648; stroke:none;" d="M437 163L406 125C384.386 132.333 385.899 162.828 406.286 171.397C418.178 176.395 428.049 169.121 437 163M953 125L954 126L953 125M501.333 126.667L501.667 127.333L501.333 126.667M369 127L370 128L369 127M440 127L441 128L440 127M757 127L758 128L757 127M284 128L285 129L284 128M368 128L369 129L368 128M529 128L530 129L529 128M758 128L759 129L758 128M794.333 128.667L794.667 129.333L794.333 128.667M182 129L183 130L182 129M367 129L368 130L367 129M383.333 129.667L383.667 130.333L383.333 129.667M210.333 130.667L210.667 131.333L210.333 130.667M392.333 130.667L392.667 131.333L392.333 130.667M491 130L492 131L491 130z"/>
<path style="fill:#3ab8ce; stroke:none;" d="M919 155L961 155C959.758 148.982 958.919 137.301 954.86 132.603C952.722 130.128 947.9 131 945 131C929.939 130.999 924.704 141.764 919 155z"/>
<path style="fill:#d8c648; stroke:none;" d="M439.333 132.667L439.667 133.333L439.333 132.667M500 132L501 133L500 132M362 133L363 134L362 133M762 133L763 134L762 133M181 134L182 135L181 134M361 134L362 135L361 134M528 134L529 135L528 134M763 134L764 135L763 134M793 134L794 135L793 134M382 135L383 136L382 135z"/>
<path style="fill:#a48ac8; stroke:none;" d="M490 135L491 136L490 135z"/>
<path style="fill:#d8c648; stroke:none;" d="M209 136L210 137L209 136M490 136L491 137L490 136M356 138L357 139L356 138M438.333 138.667L438.667 139.333L438.333 138.667M499 138L500 139L499 138M766 138L767 139L766 138M355 139L356 140L355 139M767 139L768 140L767 139M792.333 139.667L792.667 140.333L792.333 139.667M180 140L181 141L180 140M354 140L355 141L354 140M381 140L382 141L381 140M527 140L528 141L527 140M768 140L769 141L768 140M438 141L438 142L461 142L438 141M489 141L490 142L489 141M208 142L209 143L208 142M498.333 143.667L498.667 144.333L498.333 143.667M349 144L350 145L349 144M771 144L772 145L771 144M348 145L349 146L348 145M380.333 145.667L380.667 146.333L380.333 145.667M456 145L457 146L456 145M488 145L488 148L489 148L488 145M526 145L527 146L526 145M772 145L773 146L772 145M791.333 145.667L791.667 146.333L791.333 145.667M179 146L180 147L179 146M347 146L348 147L347 146M455 146L456 147L455 146M207.333 147.667L207.667 148.333L207.333 147.667z"/>
<path style="fill:#fd7269; stroke:none;" d="M252 147C247.729 150.933 232.207 159.944 232.207 166.035C232.207 168.985 235.493 171.049 238.001 171.682C245.264 173.516 274.945 175.49 265.772 162C264.092 159.53 261.995 157.288 260.08 155C257.561 151.99 255.186 149.292 252 147M571 147C566.547 150.614 550.041 160.584 551.256 166.981C552.947 175.885 579.199 172 586 172C587.149 162.03 578.641 152.844 571 147z"/>
<path style="fill:#a48ac8; stroke:none;" d="M631 148L627 171L686 171L690 148L631 148z"/>
<path style="fill:#3ab8ce; stroke:none;" d="M705 148L701 172L749 172L771 171.436L785 161L773.829 148.603L753 148L705 148z"/>
<path style="fill:#fd7269; stroke:none;" d="M805 148L801 172L844 172C848.163 172 856.953 173.652 860.4 170.972C864.691 167.637 864.895 153.106 865 148L805 148z"/>
<path style="fill:#d8c648; stroke:none;" d="M865.333 148.667L865.667 149.333L865.333 148.667M497 149L498 150L497 149M689 149L690 150L689 149M342 150L343 151L342 150z"/>
<path style="fill:#a48ac8; stroke:none;" d="M776 150L777 151L776 150M790 150L791 151L790 150z"/>
<path style="fill:#d8c648; stroke:none;" d="M804 150L805 151L804 150M178 151L179 152L178 151M341 151L342 152L341 151M379 151L380 152L379 151M449 151L450 152L449 151M487 151L488 152L487 151M525 151L526 152L525 151M575 151L576 152L575 151z"/>
<path style="fill:#a48ac8; stroke:none;" d="M777 151L778 152L777 151z"/>
<path style="fill:#d8c648; stroke:none;" d="M790.333 151.667L790.667 152.333L790.333 151.667M378 152L379 153L378 152M448 152L449 153L448 152M486 152L487 153L486 152M576 152L577 153L576 152z"/>
<path style="fill:#a48ac8; stroke:none;" d="M778 152L779 153L778 152z"/>
<path style="fill:#d8c648; stroke:none;" d="M206 153L207 154L206 153M258 153L259 154L258 153M377 153L378 154L377 153M259 154L260 155L259 154M864.333 154.667L864.667 155.333L864.333 154.667M260 155L261 156L260 155M336 155L337 156L336 155M496 155L497 156L496 155z"/>
<path style="fill:#a48ac8; stroke:none;" d="M780 155L781 156L780 155M789.333 155.667L789.667 156.333L789.333 155.667z"/>
<path style="fill:#d8c648; stroke:none;" d="M803.333 155.667L803.667 156.333L803.333 155.667M991 155L992 156L991 155M335 156L336 157L335 156M443 156L444 157L443 156z"/>
<path style="fill:#a48ac8; stroke:none;" d="M781 156L782 157L781 156z"/>
<path style="fill:#d8c648; stroke:none;" d="M177 157L178 158L177 157M334 157L335 158L334 157M372 157L373 158L372 157M442 157L443 158L442 157M480 157L481 158L480 157M524 157L525 158L524 157M580 157L581 158L580 157z"/>
<path style="fill:#a48ac8; stroke:none;" d="M782 157L783 158L782 157M788 157L789 158L788 157z"/>
<path style="fill:#d8c648; stroke:none;" d="M371 158L372 159L371 158M479 158L480 159L479 158M581 158L582 159L581 158z"/>
<path style="fill:#a48ac8; stroke:none;" d="M783 158L784 159L783 158z"/>
<path style="fill:#d8c648; stroke:none;" d="M787 158L788 159L787 158M205 159L206 160L205 159M263 159L264 160L263 159M786 159L787 160L786 159M992 159L993 160L992 159M264 160L265 161L264 160M495.333 160.667L495.667 161.333L495.333 160.667M863 160L864 161L863 160M265 161L266 162L265 161M329 161L330 162L329 161M802.333 161.667L802.667 162.333L802.333 161.667M328 162L329 163L328 162M523 162L524 163L523 162M176 163L177 164L176 163z"/>
<path style="fill:#a48ac8; stroke:none;" d="M327 163L328 164L327 163z"/>
<path style="fill:#d8c648; stroke:none;" d="M365 163L366 164L365 163M473 163L474 164L473 163M585 163L586 164L585 163M993 163L994 164L993 163M204.333 164.667L204.667 165.333L204.333 164.667z"/>
<path style="fill:#a48ac8; stroke:none;" d="M326 164L327 165L326 164z"/>
<path style="fill:#d8c648; stroke:none;" d="M364 164L365 165L364 164M472 164L473 165L472 164M586 164L587 165L586 164M268.333 165.667L268.667 166.333L268.333 165.667M862.333 165.667L862.667 166.333L862.333 165.667M494 166L495 167L494 166M686 166L687 167L686 166z"/>
<path style="fill:#a48ac8; stroke:none;" d="M322 167L323 168L322 167z"/>
<path style="fill:#d8c648; stroke:none;" d="M801 167L802 168L801 167M994 167L995 168L994 167M175 168L176 169L175 168z"/>
<path style="fill:#a48ac8; stroke:none;" d="M321 168L322 169L321 168z"/>
<path style="fill:#d8c648; stroke:none;" d="M359 168L360 169L359 168M522 168L523 169L522 168M551 168L552 169L551 168M586.333 168.667L586.667 169.333L586.333 168.667z"/>
<path style="fill:#a48ac8; stroke:none;" d="M320 169L321 170L320 169z"/>
<path style="fill:#d8c648; stroke:none;" d="M358 169L359 170L358 169M466 169L467 170L466 169M552 169L553 170L552 169M203 170L204 171L203 170M234 170L235 171L234 170z"/>
<path style="fill:#a48ac8; stroke:none;" d="M317 171L317 172L335 172L317 171z"/>
<path style="fill:#d8c648; stroke:none;" d="M465 170L466 171L465 170M235 171L236 172L235 171M267 171L268 172L267 171M444 171L444 172L464 172L444 171M861 171L862 172L861 171M965 171L965 172L995 172L965 171z"/>
</svg>
